<?xml version="1.0" encoding="UTF-8" standalone="no"?>
<!-- Created with Inkscape (http://www.inkscape.org/) -->

<svg
   width="132.29172mm"
   height="105.89244mm"
   viewBox="0 0 132.29172 105.89244"
   version="1.1"
   id="svg1"
   xml:space="preserve"
   inkscape:version="1.3.1 (91b66b0783, 2023-11-16)"
   sodipodi:docname="7079479_3293475-hijau.svg"
   xmlns:inkscape="http://www.inkscape.org/namespaces/inkscape"
   xmlns:sodipodi="http://sodipodi.sourceforge.net/DTD/sodipodi-0.dtd"
   xmlns="http://www.w3.org/2000/svg"
   xmlns:svg="http://www.w3.org/2000/svg"><sodipodi:namedview
     id="namedview1"
     pagecolor="#ffffff"
     bordercolor="#000000"
     borderopacity="0.25"
     inkscape:showpageshadow="2"
     inkscape:pageopacity="0.0"
     inkscape:pagecheckerboard="0"
     inkscape:deskcolor="#d1d1d1"
     inkscape:document-units="mm"
     inkscape:zoom="1.4485269"
     inkscape:cx="388.32554"
     inkscape:cy="552.63039"
     inkscape:window-width="1920"
     inkscape:window-height="1009"
     inkscape:window-x="-8"
     inkscape:window-y="1072"
     inkscape:window-maximized="1"
     inkscape:current-layer="layer1" /><defs
     id="defs1" /><g
     inkscape:label="Layer 1"
     inkscape:groupmode="layer"
     id="layer1"
     transform="translate(-31.599606,-93.702939)"><rect
       style="fill:#ffffff;fill-opacity:1;stroke-width:0.252255"
       id="rect18"
       width="132.29172"
       height="105.89243"
       x="31.599606"
       y="93.702934"
       inkscape:export-filename="7079479_3293475-hijau-whitebackground.png"
       inkscape:export-xdpi="96"
       inkscape:export-ydpi="96" /><g
       id="Background_Simple"
       style="display:none"
       transform="matrix(0.26458333,0,0,0.26458333,38.881843,84.667551)">
	<g
   style="display:inline"
   id="g33">
		<path
   style="fill:#407bff"
   d="M 382.219,191.911 C 336.116,142.37 220.835,101.389 154.92,121.693 92.868,140.807 53.919,217.24 100.24,268.388 c 53.337,58.896 145.232,83.233 220.68,72.887 68.846,-9.44 117.322,-89.163 61.299,-149.364 z"
   id="path32" />
		<path
   style="opacity:0.9;fill:#ffffff"
   d="M 382.219,191.911 C 336.116,142.37 220.835,101.389 154.92,121.693 92.868,140.807 53.919,217.24 100.24,268.388 c 53.337,58.896 145.232,83.233 220.68,72.887 68.846,-9.44 117.322,-89.163 61.299,-149.364 z"
   id="path33" />
	</g>
</g><g
       id="g15"
       transform="translate(-7.2822126,-1.8508474)"><g
         id="Background_Complete"
         transform="matrix(0.26458333,0,0,0.26458333,38.881843,84.667551)"
         inkscape:export-filename="7079479_3293475-hijau.png"
         inkscape:export-xdpi="96"
         inkscape:export-ydpi="96">
	<g
   id="g8">
		<rect
   y="382.39801"
   style="fill:#ebebeb"
   width="500"
   height="0.25"
   id="rect1"
   x="0" />
		<rect
   x="416.77899"
   y="398.49399"
   style="fill:#ebebeb"
   width="33.122002"
   height="0.25"
   id="rect2" />
		<rect
   x="322.52701"
   y="401.20801"
   style="fill:#ebebeb"
   width="8.6929998"
   height="0.25"
   id="rect3" />
		<rect
   x="396.586"
   y="389.20801"
   style="fill:#ebebeb"
   width="19.191999"
   height="0.25"
   id="rect4" />
		<rect
   x="52.459"
   y="390.88901"
   style="fill:#ebebeb"
   width="43.193001"
   height="0.25"
   id="rect5" />
		<rect
   x="104.556"
   y="390.88901"
   style="fill:#ebebeb"
   width="6.3330002"
   height="0.25"
   id="rect6" />
		<rect
   x="131.47099"
   y="395.11099"
   style="fill:#ebebeb"
   width="93.676003"
   height="0.25"
   id="rect7" />
		<path
   style="fill:#ebebeb"
   d="M 237.014,337.8 H 43.915 c -3.147,0 -5.708,-2.561 -5.708,-5.708 V 60.66 c 0,-3.147 2.561,-5.708 5.708,-5.708 h 193.099 c 3.146,0 5.707,2.561 5.707,5.708 v 271.432 c 0,3.147 -2.561,5.708 -5.707,5.708 z M 43.915,55.203 c -3.01,0 -5.458,2.448 -5.458,5.458 v 271.432 c 0,3.01 2.448,5.458 5.458,5.458 h 193.099 c 3.009,0 5.457,-2.448 5.457,-5.458 V 60.66 c 0,-3.009 -2.448,-5.458 -5.457,-5.458 H 43.915 Z"
   id="path7" />
		<path
   style="fill:#ebebeb"
   d="M 453.31,337.8 H 260.212 c -3.147,0 -5.707,-2.561 -5.707,-5.708 V 60.66 c 0,-3.147 2.561,-5.708 5.707,-5.708 H 453.31 c 3.148,0 5.708,2.561 5.708,5.708 v 271.432 c 0.001,3.147 -2.56,5.708 -5.708,5.708 z M 260.212,55.203 c -3.009,0 -5.457,2.448 -5.457,5.458 v 271.432 c 0,3.01 2.448,5.458 5.457,5.458 H 453.31 c 3.01,0 5.458,-2.448 5.458,-5.458 V 60.66 c 0,-3.009 -2.448,-5.458 -5.458,-5.458 H 260.212 Z"
   id="path8" />
	</g>
	<g
   id="g32">
		<g
   id="g14">
			<g
   id="g13">
				<g
   id="g12">
					
						<rect
   x="66.796997"
   y="95.611"
   transform="rotate(180,134.6463,239.0045)"
   style="fill:#e6e6e6"
   width="135.69901"
   height="286.78799"
   id="rect8" />
					
						<rect
   x="63.780998"
   y="95.611"
   transform="rotate(180,131.6307,239.0045)"
   style="fill:#f5f5f5"
   width="135.69901"
   height="286.78799"
   id="rect9" />
					
						<rect
   x="-5.6830001"
   y="176.56799"
   transform="rotate(90,131.6307,239.0046)"
   style="fill:#fafafa"
   width="274.62701"
   height="124.873"
   id="rect10" />
					<polygon
   style="fill:#ffffff"
   points="165.308,376.318 133.674,101.691 97.954,101.691 129.587,376.318 "
   id="polygon10" />
					
						<rect
   x="-66.980003"
   y="237.86501"
   transform="rotate(90,70.334,239.0046)"
   style="fill:#e6e6e6"
   width="274.62701"
   height="2.28"
   id="rect11" />
					
						<rect
   x="66.019997"
   y="125.478"
   transform="rotate(180,131.6307,129.5593)"
   style="fill:#f5f5f5"
   width="131.22099"
   height="8.1630001"
   id="rect12" />
				</g>
			</g>
		</g>
		<g
   id="g19">
			
				<rect
   x="163.632"
   y="271.80301"
   transform="rotate(90,246.83165,299.19795)"
   style="fill:#f0f0f0"
   width="166.39999"
   height="54.789001"
   id="rect14" />
			
				<rect
   x="222.444"
   y="220.862"
   transform="rotate(90,246.83165,245.24925)"
   style="fill:#f5f5f5"
   width="48.773998"
   height="48.773998"
   id="rect15" />
			
				<rect
   x="222.44501"
   y="274.01401"
   transform="rotate(90,246.83165,298.40145)"
   style="fill:#f5f5f5"
   width="48.773998"
   height="48.773998"
   id="rect16" />
			
				<rect
   x="222.44501"
   y="327.16699"
   transform="rotate(90,246.83165,351.55365)"
   style="fill:#f5f5f5"
   width="48.773998"
   height="48.773998"
   id="rect17" />
			<path
   style="fill:#e6e6e6"
   d="m 257.627,220.216 v 0 h -21.591 v 0 c 0,2.793 2.264,5.057 5.057,5.057 h 11.476 c 2.794,0.001 5.058,-2.264 5.058,-5.057 z"
   id="path17" />
			<path
   style="fill:#e6e6e6"
   d="m 257.627,273.369 v 0 h -21.591 v 0 c 0,2.793 2.264,5.057 5.057,5.057 h 11.476 c 2.794,0 5.058,-2.264 5.058,-5.057 z"
   id="path18" />
			<path
   style="fill:#e6e6e6"
   d="m 257.627,326.521 v 0 h -21.591 v 0 c 0,2.793 2.264,5.057 5.057,5.057 h 11.476 c 2.794,0 5.058,-2.264 5.058,-5.057 z"
   id="path19" />
			
				<rect
   x="204.709"
   y="285.51501"
   transform="rotate(90,287.90885,299.19795)"
   style="fill:#f5f5f5"
   width="166.39999"
   height="27.365"
   id="rect19" />
		</g>
		<g
   id="g28">
			<g
   id="g27">
				
					<rect
   x="420.48801"
   y="253.035"
   transform="rotate(180,428.08375,315.6722)"
   style="fill:#f0f0f0"
   width="15.191"
   height="125.275"
   id="rect20" />
				
					<rect
   x="287.715"
   y="378.31"
   transform="rotate(180,360.64465,380.35415)"
   style="fill:#f0f0f0"
   width="145.85899"
   height="4.0890002"
   id="rect21" />
				<rect
   x="285.60999"
   y="253.035"
   style="fill:#fafafa"
   width="134.87801"
   height="125.275"
   id="rect22" />
				<path
   style="fill:#f0f0f0"
   d="m 312.017,326.239 h 82.064 c 8.056,0 14.609,-6.554 14.609,-14.61 0,-8.056 -6.554,-14.61 -14.609,-14.61 h -82.064 c -8.056,0 -14.609,6.554 -14.609,14.61 0,8.056 6.554,14.61 14.609,14.61 z m 82.065,-28.238 c 7.515,0 13.629,6.114 13.629,13.628 0,7.515 -6.114,13.628 -13.629,13.628 h -82.064 c -7.515,0 -13.629,-6.114 -13.629,-13.628 0,-7.515 6.114,-13.628 13.629,-13.628 z"
   id="path22" />
				<path
   style="fill:#f0f0f0"
   d="m 312.017,362.585 h 82.064 c 8.056,0 14.609,-6.554 14.609,-14.61 0,-8.056 -6.554,-14.61 -14.609,-14.61 h -82.064 c -8.056,0 -14.609,6.554 -14.609,14.61 0,8.056 6.554,14.61 14.609,14.61 z m 82.065,-28.238 c 7.515,0 13.629,6.114 13.629,13.628 0,7.515 -6.114,13.628 -13.629,13.628 h -82.064 c -7.515,0 -13.629,-6.114 -13.629,-13.628 0,-7.515 6.114,-13.628 13.629,-13.628 z"
   id="path23" />
				<path
   style="fill:#ebebeb"
   d="m 340.666,308.478 h 24.766 c 1.676,0 3.048,-1.372 3.048,-3.048 v 0 c 0,-1.677 -1.372,-3.048 -3.048,-3.048 h -24.766 c -1.676,0 -3.048,1.372 -3.048,3.048 v 0 c 0,1.676 1.372,3.048 3.048,3.048 z"
   id="path24" />
				<path
   style="fill:#f0f0f0"
   d="m 312.017,289.893 h 82.064 c 8.056,0 14.609,-6.554 14.609,-14.61 0,-8.056 -6.554,-14.61 -14.609,-14.61 h -82.064 c -8.056,0 -14.609,6.554 -14.609,14.61 0,8.055 6.554,14.61 14.609,14.61 z m 82.065,-28.239 c 7.515,0 13.629,6.114 13.629,13.628 0,7.515 -6.114,13.628 -13.629,13.628 h -82.064 c -7.515,0 -13.629,-6.114 -13.629,-13.628 0,-7.515 6.114,-13.628 13.629,-13.628 z"
   id="path25" />
				<path
   style="fill:#ebebeb"
   d="m 340.666,272.132 h 24.766 c 1.676,0 3.048,-1.372 3.048,-3.048 v 0 c 0,-1.676 -1.372,-3.048 -3.048,-3.048 h -24.766 c -1.676,0 -3.048,1.372 -3.048,3.048 v 0 c 0,1.676 1.372,3.048 3.048,3.048 z"
   id="path26" />
				<path
   style="fill:#ebebeb"
   d="m 340.666,344.824 h 24.766 c 1.676,0 3.048,-1.372 3.048,-3.048 v 0 c 0,-1.676 -1.372,-3.048 -3.048,-3.048 h -24.766 c -1.676,0 -3.048,1.372 -3.048,3.048 v 0 c 0,1.677 1.372,3.048 3.048,3.048 z"
   id="path27" />
			</g>
			
				<rect
   x="282.836"
   y="246.66701"
   transform="rotate(180,351.66245,249.8507)"
   style="fill:#f0f0f0"
   width="137.65199"
   height="6.368"
   id="rect27" />
			<rect
   x="420.48801"
   y="246.66701"
   style="fill:#e6e6e6"
   width="18.167"
   height="6.368"
   id="rect28" />
		</g>
		<g
   id="g31">
			<path
   style="fill:#e0e0e0"
   d="m 322.025,146.388 c 3.067,1.539 11.387,-0.114 8.614,5.516 -1.304,2.646 -3.426,5.472 -5.686,8.26 -3.098,3.821 -2.513,7.966 1.145,9.471 0.888,0.365 1.613,0.819 2.023,1.406 1.685,2.415 -2.295,5.655 -4.249,8.074 -1.888,2.337 -2.742,4.8 -1.298,6.601 1.594,1.987 4.917,1.257 7.554,1.857 6.347,1.443 -0.18,10.194 0.494,14.691 0.461,3.078 2.957,3.936 6.349,4.371 2.766,0.355 6.459,0.603 6.613,3.439 0.133,2.454 -3.063,5.236 -3.901,7.816 -0.815,2.507 -0.537,4.943 0.615,6.798 1.029,1.658 2.729,2.78 4.979,3.258 3.143,0.668 7.897,-0.025 8.123,3.521 0.101,1.584 -1.002,2.985 -0.235,4.443 0.647,1.231 2.118,1.853 3.688,2.168 2.524,0.506 6.165,0.369 9.059,-0.161 3.689,-0.676 9.136,-3.927 7.135,-7.062 -0.561,-0.879 -1.642,-1.391 -2.853,-1.638 -0.885,-0.181 -3.462,0.099 -3.794,-0.499 -0.332,-0.6 0.557,-2.904 0.595,-3.743 0.109,-2.41 -0.323,-4.675 -1.075,-6.765 -1.021,-2.839 -2.635,-5.389 -4.762,-7.544 -0.872,-0.884 -2.271,-1.534 -2.449,-2.823 -0.17,-1.23 0.633,-2.714 1.53,-3.973 1.413,-1.986 3.599,-3.884 4.391,-6.011 1.244,-3.341 -1.77,-4.401 -4.559,-5.16 -2.523,-0.686 -5.842,-1.569 -4.986,-4.631 0.619,-2.212 3.406,-4.022 4.241,-6.178 1.12,-2.894 -1.611,-3.007 -3.57,-4.041 -2.541,-1.341 -3.184,-3.735 -2.261,-6.77 1.521,-5.004 10.693,-12.065 5.997,-15.318 -1.192,-0.826 -2.297,-1.104 -3.015,-2.345 -0.767,-1.327 -0.879,-2.98 -1.875,-4.185 -1.581,-1.911 -4.848,-2.232 -6.556,-4.007 -3.502,-3.639 4.064,-10.094 -2.842,-11.63 -1.578,-0.351 -2.977,-0.683 -4.034,-1.669 -0.632,-0.589 -1.144,-3.443 -1.858,-3.642 -3.167,-0.883 -8.883,5.266 -10.678,7.164 -2.185,2.307 -10.272,9.103 -6.609,10.941 z"
   id="path28" />
			<path
   style="fill:#f5f5f5"
   d="m 376.388,231.206 c -1.883,-3.482 -10.108,-6.958 -4.648,-11 2.567,-1.9 5.952,-3.475 9.439,-4.926 4.779,-1.989 6.481,-6.596 4.059,-10.41 -0.588,-0.926 -0.985,-1.84 -1.032,-2.697 -0.194,-3.52 5.052,-4.365 8.07,-5.629 2.917,-1.221 4.989,-3.212 4.678,-5.953 -0.343,-3.025 -3.666,-4.342 -5.672,-6.594 -4.827,-5.421 5.615,-10.328 7.427,-15.351 1.24,-3.438 -0.502,-5.867 -3.262,-8.419 -2.251,-2.082 -5.376,-4.63 -3.994,-7.63 1.196,-2.595 5.505,-3.459 7.626,-5.58 2.061,-2.061 3.12,-4.728 3.096,-7.344 -0.021,-2.337 -0.92,-4.542 -2.65,-6.43 -2.415,-2.637 -6.981,-4.88 -5.282,-8.651 0.759,-1.684 2.482,-2.435 2.586,-4.404 0.088,-1.662 -0.877,-3.214 -2.094,-4.511 -1.957,-2.086 -5.242,-4.207 -8.079,-5.463 -3.617,-1.6 -10.163,-1.654 -10.075,2.799 0.025,1.248 0.705,2.444 1.641,3.45 0.684,0.735 3.108,2.049 3.08,2.868 -0.028,0.82 -2.046,2.627 -2.529,3.463 -1.386,2.401 -2.217,4.987 -2.673,7.596 -0.618,3.541 -0.56,7.155 0.164,10.683 0.297,1.447 1.182,2.981 0.649,4.412 -0.509,1.366 -2.011,2.385 -3.476,3.119 -2.309,1.156 -5.255,1.742 -7.092,3.428 -2.886,2.648 -0.794,5.606 1.261,8.116 1.859,2.27 4.315,5.236 1.92,7.84 -1.73,1.881 -5.158,2.003 -7.049,3.692 -2.538,2.268 -0.189,4.08 0.987,6.356 1.525,2.952 0.81,5.802 -1.629,8.337 -4.02,4.179 -15.892,5.712 -13.491,11.96 0.61,1.586 1.436,2.558 1.405,4.275 -0.034,1.836 -0.82,3.598 -0.585,5.451 0.372,2.94 3.083,5.298 3.64,8.176 1.142,5.902 -8.989,7.812 -3.717,13.676 1.204,1.339 2.261,2.549 2.666,4.215 0.243,0.996 -0.833,4.236 -0.31,4.884 2.321,2.872 10.656,0.126 13.256,-0.703 3.164,-1.008 13.937,-2.943 11.689,-7.101 z"
   id="path29" />
			<g
   id="g30">
				<path
   style="fill:#f0f0f0"
   d="m 397.469,223.345 c 0,0 -0.996,23.322 -39.178,23.322 -38.182,0 -39.178,-23.322 -39.178,-23.322 z"
   id="path30" />
			</g>
		</g>
	</g>
</g><g
         id="Shadow_1_"
         transform="matrix(0.26458333,0,0,0.26458333,38.881843,84.667551)">
	<ellipse
   id="_x3C_Path_x3E__188_"
   style="fill:#f5f5f5"
   cx="250"
   cy="416.23801"
   rx="193.88901"
   ry="11.323" />
</g><g
         style="opacity:0.2"
         id="g34"
         transform="matrix(0.26458333,0,0,0.26458333,38.881843,84.667551)">
			<polygon
   style="fill:#407bff"
   points="360.729,407.866 297.039,290.152 233.349,407.866 "
   id="polygon33" />
			<polygon
   style="fill:#407bff"
   points="360.729,208.72 297.039,326.434 233.349,208.72 "
   id="polygon34" />
		</g><g
         id="g37"
         transform="matrix(0.26458333,0,0,0.26458333,38.881843,84.667551)"
         style="fill:#1b4242;fill-opacity:1">
			<path
   style="fill:#1b4242;fill-opacity:1"
   d="m 308.705,278.216 -9.319,17.225 c -1.009,1.865 -3.685,1.865 -4.694,0 l -9.32,-17.225 c -3.677,-6.795 1.244,-15.052 8.97,-15.052 h 5.393 c 7.726,0 12.647,8.256 8.97,15.052 z"
   id="path34" />
			<path
   style="fill:#1b4242;fill-opacity:1"
   d="m 298.054,378.15 28.911,11.897 c 2.703,1.113 1.908,5.136 -1.016,5.136 h -57.821 c -2.923,0 -3.719,-4.024 -1.016,-5.136 l 28.91,-11.897 c 0.652,-0.268 1.382,-0.268 2.032,0 z"
   id="path35" />
			<circle
   style="fill:#1b4242;fill-opacity:1"
   cx="297.039"
   cy="351.79501"
   r="3.707"
   id="circle35" />
			<circle
   style="fill:#1b4242;fill-opacity:1"
   cx="297.039"
   cy="313.04901"
   r="1.911"
   id="circle36" />
			<circle
   style="fill:#1b4242;fill-opacity:1"
   cx="297.039"
   cy="331.52399"
   r="2.1730001"
   id="circle37" />
		</g><path
         style="fill:#9ec8b9;fill-opacity:1;stroke-width:0.264583"
         d="m 134.23926,191.04698 h -33.5317 c -0.844287,0 -1.534849,0.69083 -1.534849,1.53512 v 0 c 0,0.84428 0.690827,1.53511 1.534849,1.53511 h 33.5317 c 0.84429,0 1.53512,-0.69083 1.53512,-1.53511 v 0 c 0,-0.84429 -0.69083,-1.53512 -1.53512,-1.53512 z"
         id="path37" /><path
         style="fill:#9ec8b9;fill-opacity:1;stroke-width:0.264583"
         d="m 134.23926,138.35654 h -33.5317 c -0.844287,0 -1.534849,0.69082 -1.534849,1.53511 v 0 c 0,0.84428 0.690827,1.53485 1.534849,1.53485 h 33.5317 c 0.84429,0 1.53512,-0.69083 1.53512,-1.53485 v 0 c 0,-0.84455 -0.69083,-1.53511 -1.53512,-1.53511 z"
         id="path38" /><polygon
         style="fill:#ff8b7b"
         points="194.628,405.677 187.576,403.388 191.96,386.761 199.011,389.05 "
         id="polygon38"
         transform="matrix(0.26458333,0,0,0.26458333,38.881843,84.667551)" /><path
         style="fill:#263238;stroke-width:0.264583"
         d="m 88.483544,191.14964 2.09603,0.68025 c 0.0762,0.0249 0.116681,0.0963 0.0971,0.17224 l -0.436563,1.69148 c -0.04524,0.17542 -0.259556,0.28575 -0.434181,0.22569 -0.725752,-0.2495 -1.060185,-0.40534 -1.981994,-0.70459 -0.567002,-0.18415 -2.436283,-0.66701 -3.219185,-0.92101 -0.765969,-0.24844 -0.509588,-1.02129 -0.154781,-0.98372 1.590145,0.16854 3.014397,0.0929 3.675327,-0.15002 0.119062,-0.0437 0.246856,-0.0466 0.358245,-0.0103 z"
         id="path39" /><g
         id="g39"
         transform="matrix(0.26458333,0,0,0.26458333,38.881843,84.667551)">
					<polygon
   style="opacity:0.2"
   points="199.012,389.055 191.957,386.765 189.701,395.337 196.755,397.626 "
   id="polygon39" />
				</g><path
         style="fill:#5f8670;fill-opacity:1;stroke-width:0.264583"
         d="m 96.634299,143.06691 c 0,0 -3.347244,15.49109 -4.132263,21.06084 -0.859631,6.09944 -4.089135,24.41363 -4.089135,24.41363 l 3.462866,0.95673 c 0,0 4.798748,-17.76227 6.200511,-23.69158 1.521354,-6.4352 5.568152,-22.73962 5.568152,-22.73962 z"
         id="path40" /><path
         style="opacity:0.3;stroke-width:0.264583"
         d="m 100.77344,148.14638 c -1.320271,3.00038 -1.976437,9.53559 -1.463146,12.52802 0.936626,-3.84968 2.063746,-8.42697 2.934226,-11.94858 -0.29342,-1.02129 -0.78052,-2.14842 -1.47108,-0.57944 z"
         id="path41" /><polygon
         style="fill:#263238"
         points="200.622,396.468 186.604,392.606 186.875,386.896 202.658,392.354 "
         id="polygon41"
         transform="matrix(0.26458333,0,0,0.26458333,38.881843,84.667551)" /><path
         style="fill:#263238;stroke-width:0.264583"
         d="m 87.716782,191.25997 c 0.172244,0.0558 0.374385,0.0823 0.518848,0.0947 0.01799,0.002 0.03519,-0.008 0.04392,-0.0233 0.0087,-0.0159 0.0071,-0.0352 -0.0037,-0.0497 -0.04604,-0.0609 -0.4572,-0.5932 -0.714111,-0.57759 -0.05953,0.003 -0.108479,0.0347 -0.141287,0.0902 -0.05424,0.0915 -0.06165,0.177 -0.02223,0.25347 0.05053,0.0976 0.174095,0.16536 0.318558,0.21219 z m 0.419894,-0.007 c -0.355336,-0.0418 -0.597694,-0.13203 -0.656696,-0.24686 -0.02434,-0.0476 -0.01799,-0.1016 0.01958,-0.16536 0.01746,-0.0294 0.03889,-0.0439 0.068,-0.0455 0.137848,-0.008 0.397404,0.24977 0.569119,0.45773 z"
         id="path42" /><path
         style="fill:#263238;stroke-width:0.264583"
         d="m 88.225576,191.35258 c 0.0066,0.002 0.01402,0.003 0.02143,0.002 0.01561,-0.003 0.02858,-0.0127 0.03466,-0.0275 0.0093,-0.0222 0.225161,-0.54504 0.09578,-0.78767 -0.03493,-0.0653 -0.09022,-0.10583 -0.164571,-0.12065 -0.08916,-0.0175 -0.160602,0.0111 -0.20029,0.0804 -0.109008,0.18944 0.04286,0.66913 0.192617,0.84031 0.0056,0.007 0.01243,0.0111 0.02037,0.0135 z m -0.0095,-0.839 c 0.03598,0.0116 0.06271,0.0341 0.08096,0.0685 0.07726,0.14473 -0.0071,0.45694 -0.06985,0.63235 -0.117739,-0.1897 -0.206904,-0.54557 -0.135202,-0.66992 0.01349,-0.0238 0.03784,-0.0492 0.103452,-0.0363 0.0071,0.001 0.01402,0.003 0.02064,0.005 z"
         id="path43" /><path
         style="fill:#263238;stroke-width:0.264583"
         d="m 100.19612,128.35952 c -0.1016,0.23654 -0.18442,0.41592 -0.278607,0.61807 -0.0926,0.19579 -0.191294,0.38682 -0.28919,0.57785 -0.197114,0.38126 -0.402431,0.7567 -0.616479,1.12871 -0.433916,0.7403 -0.90117,1.46579 -1.429279,2.16323 -0.52361,0.70009 -1.099608,1.37742 -1.760537,2.01004 -0.655902,0.635 -1.407054,1.22396 -2.295525,1.69651 l -0.06641,0.0354 c -0.106891,0.0569 -0.224366,0.0982 -0.337343,0.12303 -0.637382,0.13627 -1.284288,0.0844 -1.817952,-0.073 -0.539221,-0.15584 -0.990071,-0.39026 -1.387211,-0.644 -0.79031,-0.51329 -1.38086,-1.1213 -1.916642,-1.73646 -0.526785,-0.62309 -0.982927,-1.26947 -1.392502,-1.93542 -0.409575,-0.67231 -0.77126,-1.33588 -1.094052,-2.0746 -0.189441,-0.43365 0.0085,-0.93901 0.442384,-1.12845 0.359039,-0.1569 0.767291,-0.0482 1.004623,0.24024 l 0.02593,0.032 c 0.437091,0.53181 0.910431,1.09352 1.386946,1.60708 0.478366,0.51805 0.970227,1.01361 1.477433,1.45018 0.500062,0.43947 1.03161,0.81862 1.518708,1.05833 0.242094,0.118 0.472281,0.19235 0.652198,0.21564 0.182827,0.022 0.296863,0.005 0.381265,-0.0323 l -0.403755,0.15822 c 0.51144,-0.33153 1.011238,-0.7829 1.484842,-1.29646 0.470958,-0.5162 0.915723,-1.09326 1.335617,-1.69995 0.417512,-0.60854 0.813594,-1.24724 1.188244,-1.90156 0.188647,-0.32649 0.37121,-0.65802 0.545041,-0.99245 l 0.255588,-0.50192 c 0.08202,-0.16007 0.173302,-0.34448 0.235743,-0.47625 l 0.0164,-0.0349 c 0.40587,-0.85857 1.431131,-1.22555 2.289704,-0.81941 0.838198,0.39634 1.206498,1.38668 0.844818,2.23255 z"
         id="path44" /><path
         style="opacity:0.3;stroke-width:0.264583"
         d="m 95.870976,131.95177 c 0.830791,-2.20663 2.595562,-2.24367 3.360208,-1.65894 -0.05556,0.10319 -0.113771,0.20637 -0.171979,0.30956 -0.41275,0.71702 -0.865188,1.41552 -1.362604,2.09286 -0.497417,0.67468 -1.042459,1.3335 -1.658938,1.95262 -0.1905,0.18786 -0.386292,0.37306 -0.590021,0.55298 -0.04233,-1.03981 0.03704,-2.21721 0.423334,-3.24908 z"
         id="path45" /><path
         style="fill:#ff8b7b;stroke-width:0.264583"
         d="m 85.442424,130.38596 -1.718998,0.0611 0.429948,-1.83621 c 0,0 1.023143,0.0418 1.753393,0.2548 0.442648,0.12911 0.623359,0.66093 0.371475,1.04695 l -0.0011,0.002 c -0.184679,0.28363 -0.496094,0.45958 -0.83476,0.47175 z"
         id="path46" /><path
         style="fill:#5f8670;fill-opacity:1;stroke-width:0.264583"
         d="m 86.411328,128.83048 c -0.141817,-0.11324 -0.327554,-0.22066 -0.567267,-0.29263 -0.144992,0.75062 -1.049073,2.02009 -1.049073,2.02009 h 0.716227 c 0.18759,0 0.365654,-0.0833 0.48604,-0.22727 l 0.50165,-0.60087 c 0.226748,-0.272 0.189442,-0.6784 -0.08758,-0.89932 z"
         id="path47" /><polygon
         style="fill:#ff8b7b"
         points="171.105,166.085 169.48,173.025 164.517,169.833 166.345,164.93 "
         id="polygon47"
         transform="matrix(0.26458333,0,0,0.26458333,38.881843,84.667551)" /><polygon
         style="fill:#ff8b7b"
         points="246.25,408.921 238.837,408.921 238.581,391.752 245.994,391.752 "
         id="polygon48"
         transform="matrix(0.26458333,0,0,0.26458333,38.881843,84.667551)" /><path
         style="fill:#263238;stroke-width:0.264583"
         d="m 101.97121,192.63395 h 2.20371 c 0.0802,0 0.14076,0.0558 0.14552,0.13388 l 0.1069,1.74361 c 0.0111,0.18097 -0.15849,0.35189 -0.34343,0.34872 -0.76729,-0.0132 -1.13374,-0.0582 -2.10291,-0.0582 -0.59611,0 -2.589214,0.0619 -3.412597,0.0619 -0.805127,0 -0.799836,-0.81412 -0.45085,-0.88794 1.564481,-0.33046 2.962007,-0.78661 3.515787,-1.22158 0.0997,-0.0781 0.22066,-0.12039 0.33787,-0.12039 z"
         id="path48" /><g
         id="g49"
         transform="matrix(0.26458333,0,0,0.26458333,38.881843,84.667551)">
					<polygon
   style="opacity:0.2"
   points="245.996,391.757 238.579,391.757 238.715,400.607 246.132,400.607 "
   id="polygon49" />
				</g><path
         style="fill:#5f8670;fill-opacity:1;stroke-width:0.264583"
         d="m 100.46097,143.06691 c 0,0 -0.749038,17.04208 -0.43101,22.65813 0.34846,6.14971 1.08003,24.37103 1.08003,24.37103 h 3.59278 c 0,0 0.90567,-17.7247 1.1221,-23.81356 0.23495,-6.6085 1.30016,-23.2156 1.30016,-23.2156 z"
         id="path49" /><polygon
         style="fill:#263238"
         points="249.318,398.47 234.646,398.47 233.528,393.014 249.722,393.819 "
         id="polygon50"
         transform="matrix(0.26458333,0,0,0.26458333,38.881843,84.667551)" /><path
         style="fill:#263238;stroke-width:0.264583"
         d="m 101.27588,192.9758 c 0.18124,0 0.38153,-0.0373 0.52282,-0.0701 0.0175,-0.004 0.0312,-0.018 0.0344,-0.0357 0.003,-0.0177 -0.004,-0.0357 -0.0188,-0.046 -0.0627,-0.0436 -0.6178,-0.42306 -0.85751,-0.32914 -0.0556,0.0217 -0.0923,0.0664 -0.10637,0.12938 -0.0233,0.10372 -0.004,0.18733 0.0571,0.24818 0.0781,0.077 0.21643,0.10346 0.3683,0.10346 z m 0.39714,-0.13653 c -0.35083,0.0699 -0.60933,0.059 -0.70088,-0.032 -0.0381,-0.0376 -0.0487,-0.091 -0.0325,-0.16325 0.007,-0.0333 0.0236,-0.0537 0.0505,-0.0643 0.12886,-0.0505 0.45535,0.11483 0.68289,0.25956 z"
         id="path50" /><path
         style="fill:#263238;stroke-width:0.264583"
         d="m 101.78838,192.90674 c 0.007,0 0.0143,-0.002 0.0209,-0.005 0.014,-0.007 0.0233,-0.0212 0.0246,-0.0368 0.002,-0.0238 0.046,-0.58817 -0.15187,-0.77867 -0.0534,-0.0513 -0.11853,-0.0728 -0.19368,-0.0638 -0.0902,0.0109 -0.14922,0.0601 -0.16562,0.13838 -0.0453,0.21405 0.24738,0.62336 0.44264,0.73977 0.007,0.004 0.0148,0.006 0.023,0.006 z m -0.26829,-0.79507 c 0.0381,0 0.0704,0.0132 0.0982,0.0402 0.11827,0.11377 0.13415,0.43683 0.12886,0.6231 -0.17066,-0.14394 -0.36513,-0.45509 -0.33549,-0.59532 0.006,-0.0267 0.0206,-0.0585 0.0873,-0.0667 0.007,-7.9e-4 0.0145,-0.001 0.0212,-0.001 z"
         id="path51" /><path
         style="fill:#263238;stroke-width:0.264583"
         d="m 108.10848,127.24906 c 0.12356,-0.69373 -0.35083,-1.35149 -1.04801,-1.45362 l -0.0228,-0.003 c -0.63236,-0.0926 -1.42611,-0.18785 -2.20398,-0.22489 -1.3388,-0.0635 -3.27819,-0.10584 -4.45823,0 -0.685274,0.0635 -1.35467,0.17727 -1.889128,0.28046 -0.0069,0.001 -0.01349,0.003 -0.02037,0.004 -0.681038,0.13785 -1.229783,0.64135 -1.427163,1.30757 -0.639762,2.15715 -1.402556,6.55955 -0.404547,15.90754 h 10.490728 c 0.0741,-0.93662 -0.13494,-3.98436 0.0185,-7.86606 0.11668,-2.95751 0.64294,-6.14468 0.96493,-7.95179 z"
         id="path52" /><path
         style="opacity:0.3;stroke-width:0.264583"
         d="m 108.00741,127.82691 c -0.21775,1.25466 -0.48604,2.95937 -0.67098,4.75377 0,0 -0.957,-1.87801 -1.13136,-3.48483 -0.17409,-1.60655 1.19433,-1.71952 1.80234,-1.26894 z"
         id="path53" /><g
         style="opacity:0.2"
         id="g56"
         transform="matrix(0.26458333,0,0,0.26458333,38.881843,84.667551)">
				<g
   id="g55">
					<path
   style="fill:#ffffff"
   d="m 234.668,164.057 c -0.136,0 -0.267,-0.074 -0.333,-0.202 -0.096,-0.184 -0.024,-0.411 0.16,-0.506 l 12.36,-6.409 c 0.186,-0.095 0.411,-0.023 0.506,0.16 0.096,0.184 0.023,0.411 -0.16,0.506 l -12.36,6.409 c -0.056,0.029 -0.114,0.042 -0.173,0.042 z"
   id="path54" />
					<path
   style="fill:#ffffff"
   d="m 240.33,164.643 c -0.096,0 -0.191,-0.036 -0.265,-0.109 l -6.771,-6.738 c -0.146,-0.146 -0.147,-0.383 -0.001,-0.53 0.146,-0.147 0.383,-0.148 0.53,-0.001 l 6.771,6.738 c 0.146,0.146 0.148,0.383 0.001,0.53 -0.072,0.073 -0.168,0.11 -0.265,0.11 z"
   id="path55" />
				</g>
				<path
   style="fill:#ffffff"
   d="m 249.262,154.58 c -5.06,-0.24 -12.39,-0.4 -16.84,0 -0.09,0.01 -0.19,0.02 -0.28,0.03 -0.16,0.66 -0.31,1.89 0.43,3.07 0.94,1.5 2.91,2.34 5.87,2.5 0.38,0.02 0.75,0.03 1.11,0.03 8.05,0 11.09,-4.86 11.22,-5.07 l 0.28,-0.45 c -0.6,-0.04 -1.19,-0.08 -1.79,-0.11 z"
   id="path56" />
			</g><path
         style="fill:#ff8b7b;stroke-width:0.264583"
         d="m 100.58717,125.5515 c 1.29646,-0.30692 1.524,-1.10861 1.43669,-1.98967 -0.0185,-0.21431 -0.0556,-0.43656 -0.10319,-0.65617 l 1.62455,-1.34937 1.19327,-0.98954 c -0.33073,1.43668 -0.7038,4.05341 0.26723,5.0112 0,0 -0.80381,1.32504 -3.0226,1.20518 -1.87431,-0.10133 -1.39595,-1.23163 -1.39595,-1.23163 z"
         id="path57" /><path
         style="opacity:0.2;stroke-width:0.264583"
         d="m 101.92067,122.90566 c 0.0476,0.21961 0.0847,0.44186 0.10319,0.65617 0.6059,-0.12171 1.41552,-0.76729 1.50019,-1.38642 0.0318,-0.23283 0.037,-0.45773 0.0212,-0.61912 z"
         id="path58" /><path
         style="fill:#263238;stroke-width:0.264583"
         d="m 101.05178,116.02068 c -0.88185,0.51805 -0.74136,1.85287 -0.98107,2.80008 0.56224,0.055 1.44568,-0.94192 1.44568,-0.94192 l 0.52784,-1.51632 z"
         id="path59" /><path
         style="fill:#ff8b7b;stroke-width:0.264583"
         d="m 105.74549,118.68212 c -0.56356,1.86902 -0.79798,2.98794 -1.98967,3.76687 -1.79228,1.17184 -3.939907,-0.16457 -3.948638,-2.14418 -0.0079,-1.78171 0.915198,-4.53866 2.958038,-4.91913 2.01269,-0.37492 3.5441,1.42742 2.98027,3.29644 z"
         id="path60" /><path
         style="fill:#263238;stroke-width:0.264583"
         d="m 103.98442,120.2675 c 1.3216,-1.53485 -0.33099,-2.29182 1.0213,-3.35756 -1.52136,0.0717 -4.02617,-0.0368 -4.47305,-1.08029 -0.44715,-1.04378 0.92869,-2.45481 2.0738,-2.5871 1.33218,-0.15399 1.03638,1.48458 1.03638,1.48458 0,0 5.06386,-0.31591 3.45625,1.83753 1.21814,-0.0736 0.88291,1.89627 -1.23508,3.55706 -0.53102,0.19103 -1.8796,0.14578 -1.8796,0.14578 z"
         id="path61" /><path
         style="fill:#263238;stroke-width:0.264583"
         d="m 106.79562,116.60488 c 0,0 1.04272,-0.30877 1.00648,-1.1356 0.37703,0.2593 0.41566,1.04749 -1.00648,1.1356 z"
         id="path62" /><path
         style="fill:#ff8b7b;stroke-width:0.264583"
         d="m 106.05399,120.6321 c -0.33655,0.41354 -0.80354,0.6604 -1.20253,0.73289 -0.60034,0.10928 -0.74189,-0.44661 -0.44212,-0.98821 0.26988,-0.48737 0.90753,-1.13163 1.44622,-0.99537 0.53075,0.13468 0.5834,0.77788 0.19843,1.25069 z"
         id="path63" /><path
         style="fill:#263238;stroke-width:0.264583"
         d="m 102.73056,118.6337 c -0.0362,0.15399 -0.14816,0.26247 -0.2495,0.24236 -0.10133,-0.0204 -0.15425,-0.16166 -0.11774,-0.31565 0.0362,-0.15399 0.14817,-0.26247 0.2495,-0.24236 0.10134,0.0204 0.15399,0.16166 0.11774,0.31565 z"
         id="path64" /><path
         style="fill:#263238;stroke-width:0.264583"
         d="m 100.9769,118.28339 c -0.0362,0.15399 -0.14816,0.26247 -0.2495,0.24236 -0.10133,-0.0204 -0.15425,-0.16166 -0.11774,-0.31565 0.0362,-0.15398 0.14817,-0.26246 0.24951,-0.24236 0.10133,0.0204 0.15398,0.16166 0.11773,0.31565 z"
         id="path65" /><path
         style="fill:#ff5652;stroke-width:0.264583"
         d="m 101.51639,118.47151 c 0,0 -0.5625,0.81836 -1.05225,1.16972 0.21431,0.3093 0.70856,0.28628 0.70856,0.28628 z"
         id="path66" /><path
         style="fill:#263238;stroke-width:0.264583"
         d="m 101.70848,120.46885 c 0.6215,0.0489 0.99933,-0.31088 1.01653,-0.32782 0.0185,-0.018 0.0188,-0.0474 7.9e-4,-0.0656 -0.0177,-0.0185 -0.0474,-0.0188 -0.0656,-8e-4 -0.004,0.004 -0.43418,0.4146 -1.11627,0.27755 -0.0254,-0.005 -0.0497,0.0111 -0.0545,0.0365 -0.005,0.0251 0.0111,0.0497 0.0365,0.0545 0.063,0.013 0.12382,0.0212 0.18256,0.0257 z"
         id="path67" /><path
         style="fill:#263238;stroke-width:0.264583"
         d="m 103.40763,118.20719 c 0.0151,0.001 0.0307,-10e-4 0.0458,-0.008 0.0466,-0.0214 0.0675,-0.0765 0.046,-0.12303 -0.21087,-0.46196 -0.63791,-0.52149 -0.65564,-0.52361 -0.0474,-0.0109 -0.0974,0.0294 -0.10398,0.0804 -0.007,0.0508 0.0294,0.0974 0.0802,0.10398 0.0177,0.003 0.34475,0.0537 0.51038,0.41672 0.0146,0.0315 0.0447,0.0511 0.0773,0.0537 z"
         id="path68" /><path
         style="fill:#263238;stroke-width:0.264583"
         d="m 100.54246,117.23035 c 0.0283,0.009 0.0603,0.004 0.0857,-0.0151 0.33364,-0.25929 0.66464,-0.15928 0.66781,-0.15822 0.0489,0.0156 0.10134,-0.0116 0.11668,-0.0606 0.0153,-0.0487 -0.0116,-0.10081 -0.0601,-0.11642 0,0 -2.6e-4,-2.6e-4 -5.3e-4,-2.6e-4 -0.0175,-0.006 -0.42809,-0.12991 -0.83767,0.18865 -0.0405,0.0315 -0.0479,0.0899 -0.0164,0.13044 0.0114,0.0153 0.0273,0.0259 0.0445,0.0315 z"
         id="path69" /><path
         style="fill:#263238;stroke-width:0.264583"
         d="m 108.21008,126.49421 0.2212,0.30083 0.19817,0.28125 c 0.1307,0.1868 0.25029,0.37544 0.37385,0.56356 0.24236,0.37624 0.46832,0.76015 0.68951,1.14591 0.43709,0.77417 0.84005,1.56607 1.19539,2.38178 0.18494,0.40402 0.34554,0.82047 0.51435,1.2319 0.14869,0.42148 0.31115,0.83556 0.44159,1.26445 0.28892,0.84534 0.49688,1.72243 0.68791,2.60006 l 0.0217,0.0997 c 0.0812,0.37227 0.001,0.7456 -0.18971,1.04273 -0.33258,0.51355 -0.73819,0.99668 -1.20359,1.42689 -0.4617,0.43313 -1.00647,0.79243 -1.58194,1.06548 -0.57891,0.27041 -1.1983,0.43868 -1.81557,0.50297 -0.30904,0.0323 -0.61807,0.036 -0.92446,0.0169 -0.15372,-0.0116 -0.30665,-0.0296 -0.46037,-0.0537 -0.077,-0.0127 -0.15399,-0.0283 -0.23283,-0.0455 l -0.26618,-0.0646 c -0.0656,-0.0159 -0.10583,-0.082 -0.0899,-0.14737 l 0.36592,-1.53379 c 0.003,-0.0122 0.0699,-0.0161 0.11112,-0.0262 l 0.14605,-0.0296 c 0.099,-0.0201 0.19897,-0.0442 0.29766,-0.072 0.1979,-0.0521 0.39079,-0.12197 0.57547,-0.1987 0.36882,-0.15716 0.70696,-0.3511 1.00144,-0.59108 0.5969,-0.46752 1.04114,-1.09008 1.39303,-1.8116 l -0.16801,1.14247 c -0.22701,-0.74797 -0.46672,-1.49145 -0.75988,-2.22197 -0.28575,-0.73157 -0.60616,-1.45283 -0.95382,-2.16244 -0.34846,-0.70882 -0.71676,-1.41049 -1.11601,-2.09232 -0.19633,-0.34264 -0.40376,-0.67813 -0.60908,-1.01203 l -0.31485,-0.49081 -0.15663,-0.23891 -0.1442,-0.21194 -0.0529,-0.0778 c -0.53393,-0.78476 -0.3302,-1.85367 0.45456,-2.3876 0.76623,-0.52176 1.80578,-0.33708 2.35108,0.40296 z"
         id="path70" /><path
         style="fill:#ff8b7b;stroke-width:0.264583"
         d="m 104.70594,140.09194 -0.57123,0.93265 2.47068,-0.0997 c 0,0 0.64664,-1.66132 -0.2376,-1.92352 l -0.34131,0.0947 c -0.55034,0.15293 -1.02209,0.50879 -1.32054,0.99589 z"
         id="path71" /><path
         style="fill:#407bff;stroke-width:0.264583"
         d="m 105.72062,138.78754 c -0.15081,0.10134 -0.30903,0.2458 -0.45032,0.4527 0.67178,0.3646 1.60972,1.60946 1.60972,1.60946 l 0.2159,-0.68289 c 0.0566,-0.17885 0.031,-0.37385 -0.0701,-0.53207 l -0.42175,-0.65961 c -0.1905,-0.29818 -0.58949,-0.38497 -0.88344,-0.18759 z"
         id="path72" /><polygon
         style="fill:#ff8b7b"
         points="255.964,212.626 246.625,213.004 247.447,218.421 255.142,217.739 "
         id="polygon72"
         transform="matrix(0.26458333,0,0,0.26458333,38.881843,84.667551)" /><path
         style="fill:#527853;fill-opacity:1;stroke-width:0.264583"
         d="m 79.378174,110.15672 -0.134938,-0.22755 c 0.387086,-0.22939 0.794279,-0.43153 1.210734,-0.60139 l 0.09975,0.245 c -0.404283,0.16457 -0.799835,0.36116 -1.175543,0.58394 z"
         id="path73" /><path
         style="fill:#527853;fill-opacity:1;stroke-width:0.264583"
         d="m 75.514728,114.81656 -0.248973,-0.09 c 0.626004,-1.73143 1.747573,-3.22342 3.243527,-4.31403 l 0.156104,0.21378 c -1.453356,1.05939 -2.54291,2.50825 -3.150658,4.19021 z"
         id="path74" /><circle
         style="fill:#527853;fill-opacity:1;stroke-width:0.264583"
         cx="83.913399"
         cy="117.84365"
         r="8.1433458"
         id="circle74" /><path
         style="opacity:0.6;fill:#ffffff;stroke-width:0.264583"
         d="m 90.716363,117.84313 c 0,3.7592 -3.04456,6.80376 -6.80376,6.80376 -1.780381,0 -3.402013,-0.68395 -4.614333,-1.80473 -1.34673,-1.24274 -2.189427,-3.02313 -2.189427,-4.99903 0,-3.75603 3.047735,-6.80376 6.80376,-6.80376 1.990989,0 3.780366,0.85513 5.026554,2.21694 0.0032,0 0.0093,0.003 0.01217,0.0122 1.096433,1.20941 1.765035,2.81252 1.765035,4.57465 z"
         id="path75" /><path
         style="fill:#ffffff;stroke-width:0.264583"
         d="m 90.716363,117.84313 c 0,3.7592 -3.04456,6.80376 -6.80376,6.80376 -1.780381,0 -3.402013,-0.68395 -4.614333,-1.80473 -1.120775,-1.21232 -1.807898,-2.83686 -1.807898,-4.61724 0,-3.75603 3.047735,-6.80376 6.80376,-6.80376 1.798637,0 3.426354,0.69321 4.64476,1.83541 0.0032,0 0.0093,0.003 0.01217,0.0122 1.096698,1.20915 1.7653,2.81226 1.7653,4.57439 z"
         id="path76" /><path
         style="fill:#263238;stroke-width:0.264583"
         d="m 83.913397,118.24053 c -0.1016,0 -0.2032,-0.0386 -0.280723,-0.11615 l -3.317875,-3.31788 c -0.155046,-0.15478 -0.155046,-0.40613 0,-0.56118 0.155046,-0.15504 0.406135,-0.15504 0.561181,0 l 3.037152,3.03715 1.754452,-1.75445 c 0.155046,-0.15504 0.406135,-0.15504 0.561181,0 0.155046,0.15478 0.155046,0.4064 0,0.56118 l -2.03491,2.03491 c -0.07726,0.0775 -0.178858,0.11642 -0.280458,0.11642 z"
         id="path77" /></g></g></svg>
